<svg width="24" height="18" viewBox="0 0 24 18" fill="none" xmlns="http://www.w3.org/2000/svg">
<path fill-rule="evenodd" clip-rule="evenodd" d="M23.8764 0.594351C23.9548 0.530412 24 0.436014 24 0.336515C24 0.150663 23.8452 0 23.6542 0H0.536779C0.240324 0 0 0.233887 0 0.522401C0 0.677704 0.0710006 0.824955 0.193739 0.924204L11.4635 10.0372C11.7091 10.2358 12.0654 10.235 12.3101 10.0353L23.8764 0.594351ZM1.08269 3.59324C0.65228 3.2452 0 3.54309 0 4.0877V17.3571C0 17.7122 0.295738 18 0.66055 18H23.3395C23.7043 18 24 17.7122 24 17.3571V3.82942C24 3.28343 23.3448 2.98601 22.915 3.33687L12.3851 11.9318L12.3147 11.9893C12.0701 12.189 11.7137 12.1898 11.4681 11.9912L11.3974 11.934L1.08269 3.59324Z" fill="#577399"/>
</svg>
