<svg width="31" height="30" viewBox="0 0 31 30" fill="none" xmlns="http://www.w3.org/2000/svg">
<path d="M9.89982 10.8423C11.7827 15.9789 13.732 18.0284 18.6911 20.2113L16.542 23.2295C10.8475 20.5033 8.01115 15.9076 6.67533 12.3213L9.89982 10.8423Z" fill="#577399"/>
<path d="M11.4797 3.75046C12.4866 3.74652 13.2521 4.58431 13.1835 5.53298C13.0755 7.02587 13.1905 8.10296 13.5001 9.43805C13.6702 10.1714 13.2854 10.9163 12.6739 11.396C11.8498 12.0427 11.2201 12.8666 10.7197 13.5759C10.0261 14.559 7.63912 14.4884 7.11124 13.4174C6.02636 11.2163 5.29114 7.16119 6.87538 4.42147C7.12422 3.99113 7.62527 3.76553 8.14446 3.7635L11.4797 3.75046Z" fill="#577399"/>
<path d="M26.7622 20.0387C26.8874 19.0952 26.0988 18.2767 25.0933 18.227C23.511 18.1487 22.3926 17.9114 21.0265 17.4605C20.276 17.2129 19.4468 17.484 18.8689 17.9996C18.0901 18.6945 17.1482 19.1858 16.3425 19.5697C15.2256 20.1017 15.0128 22.3481 16.0751 22.9719C18.2584 24.2537 22.4326 25.4307 25.5031 24.2748C25.9854 24.0933 26.2828 23.6507 26.3474 23.1641L26.7622 20.0387Z" fill="#577399"/>
</svg>
